<mxfile host="app.diagrams.net" modified="2024-03-06T17:15:33.977Z" agent="Mozilla/5.0 (Windows NT 10.0; Win64; x64) AppleWebKit/537.36 (KHTML, like Gecko) Chrome/122.0.0.0 Safari/537.36 Edg/122.0.0.0" etag="5srcdm5ihLSkahjO8JUN" version="24.0.2" type="device">
  <diagram name="PÃ¡gina-1" id="23xyreEJi1knpfaT45X4">
    <mxGraphModel dx="4506" dy="1586" grid="1" gridSize="10" guides="1" tooltips="1" connect="1" arrows="1" fold="1" page="1" pageScale="1" pageWidth="827" pageHeight="1169" math="0" shadow="0">
      <root>
        <mxCell id="0" />
        <mxCell id="1" parent="0" />
        <mxCell id="xa4s_tNgX6mTq1DxwBig-12" style="edgeStyle=orthogonalEdgeStyle;rounded=0;orthogonalLoop=1;jettySize=auto;html=1;exitX=0.5;exitY=0;exitDx=0;exitDy=0;entryX=1;entryY=0.5;entryDx=0;entryDy=0;" parent="1" source="xa4s_tNgX6mTq1DxwBig-1" target="xa4s_tNgX6mTq1DxwBig-4" edge="1">
          <mxGeometry relative="1" as="geometry" />
        </mxCell>
        <mxCell id="xa4s_tNgX6mTq1DxwBig-13" style="edgeStyle=orthogonalEdgeStyle;rounded=0;orthogonalLoop=1;jettySize=auto;html=1;entryX=1;entryY=0.5;entryDx=0;entryDy=0;" parent="1" source="xa4s_tNgX6mTq1DxwBig-1" target="xa4s_tNgX6mTq1DxwBig-3" edge="1">
          <mxGeometry relative="1" as="geometry" />
        </mxCell>
        <mxCell id="xa4s_tNgX6mTq1DxwBig-14" style="edgeStyle=orthogonalEdgeStyle;rounded=0;orthogonalLoop=1;jettySize=auto;html=1;entryX=1;entryY=0.5;entryDx=0;entryDy=0;" parent="1" source="xa4s_tNgX6mTq1DxwBig-1" target="xa4s_tNgX6mTq1DxwBig-2" edge="1">
          <mxGeometry relative="1" as="geometry" />
        </mxCell>
        <mxCell id="xa4s_tNgX6mTq1DxwBig-15" style="edgeStyle=orthogonalEdgeStyle;rounded=0;orthogonalLoop=1;jettySize=auto;html=1;entryX=0;entryY=0.5;entryDx=0;entryDy=0;" parent="1" source="xa4s_tNgX6mTq1DxwBig-1" target="xa4s_tNgX6mTq1DxwBig-5" edge="1">
          <mxGeometry relative="1" as="geometry" />
        </mxCell>
        <mxCell id="xa4s_tNgX6mTq1DxwBig-16" style="edgeStyle=orthogonalEdgeStyle;rounded=0;orthogonalLoop=1;jettySize=auto;html=1;entryX=0;entryY=0.5;entryDx=0;entryDy=0;" parent="1" source="xa4s_tNgX6mTq1DxwBig-1" target="xa4s_tNgX6mTq1DxwBig-6" edge="1">
          <mxGeometry relative="1" as="geometry" />
        </mxCell>
        <mxCell id="xa4s_tNgX6mTq1DxwBig-17" style="edgeStyle=orthogonalEdgeStyle;rounded=0;orthogonalLoop=1;jettySize=auto;html=1;entryX=0;entryY=0.5;entryDx=0;entryDy=0;" parent="1" source="xa4s_tNgX6mTq1DxwBig-1" target="xa4s_tNgX6mTq1DxwBig-7" edge="1">
          <mxGeometry relative="1" as="geometry" />
        </mxCell>
        <mxCell id="xa4s_tNgX6mTq1DxwBig-18" style="edgeStyle=orthogonalEdgeStyle;rounded=0;orthogonalLoop=1;jettySize=auto;html=1;entryX=0;entryY=0.5;entryDx=0;entryDy=0;" parent="1" source="xa4s_tNgX6mTq1DxwBig-1" target="xa4s_tNgX6mTq1DxwBig-8" edge="1">
          <mxGeometry relative="1" as="geometry" />
        </mxCell>
        <mxCell id="xa4s_tNgX6mTq1DxwBig-19" style="edgeStyle=orthogonalEdgeStyle;rounded=0;orthogonalLoop=1;jettySize=auto;html=1;entryX=0;entryY=0.5;entryDx=0;entryDy=0;" parent="1" source="xa4s_tNgX6mTq1DxwBig-1" target="xa4s_tNgX6mTq1DxwBig-9" edge="1">
          <mxGeometry relative="1" as="geometry" />
        </mxCell>
        <mxCell id="xa4s_tNgX6mTq1DxwBig-20" style="edgeStyle=orthogonalEdgeStyle;rounded=0;orthogonalLoop=1;jettySize=auto;html=1;entryX=0;entryY=0.5;entryDx=0;entryDy=0;" parent="1" source="xa4s_tNgX6mTq1DxwBig-1" target="xa4s_tNgX6mTq1DxwBig-10" edge="1">
          <mxGeometry relative="1" as="geometry" />
        </mxCell>
        <mxCell id="xa4s_tNgX6mTq1DxwBig-21" style="edgeStyle=orthogonalEdgeStyle;rounded=0;orthogonalLoop=1;jettySize=auto;html=1;entryX=0;entryY=0.5;entryDx=0;entryDy=0;" parent="1" source="xa4s_tNgX6mTq1DxwBig-1" target="xa4s_tNgX6mTq1DxwBig-11" edge="1">
          <mxGeometry relative="1" as="geometry" />
        </mxCell>
        <mxCell id="xa4s_tNgX6mTq1DxwBig-1" value="tb_clientes" style="rounded=0;whiteSpace=wrap;html=1;" parent="1" vertex="1">
          <mxGeometry x="440" y="780" width="120" height="60" as="geometry" />
        </mxCell>
        <mxCell id="xa4s_tNgX6mTq1DxwBig-2" value="id_cliente" style="ellipse;whiteSpace=wrap;html=1;fontStyle=4" parent="1" vertex="1">
          <mxGeometry x="350" y="690" width="120" height="80" as="geometry" />
        </mxCell>
        <mxCell id="xa4s_tNgX6mTq1DxwBig-3" value="nombre_cliente" style="ellipse;whiteSpace=wrap;html=1;" parent="1" vertex="1">
          <mxGeometry x="350" y="590" width="120" height="80" as="geometry" />
        </mxCell>
        <mxCell id="xa4s_tNgX6mTq1DxwBig-4" value="apellido_cliente" style="ellipse;whiteSpace=wrap;html=1;" parent="1" vertex="1">
          <mxGeometry x="350" y="490" width="120" height="80" as="geometry" />
        </mxCell>
        <mxCell id="xa4s_tNgX6mTq1DxwBig-5" value="dui_cliente" style="ellipse;whiteSpace=wrap;html=1;" parent="1" vertex="1">
          <mxGeometry x="530" y="690" width="120" height="80" as="geometry" />
        </mxCell>
        <mxCell id="xa4s_tNgX6mTq1DxwBig-6" value="correo_cliente" style="ellipse;whiteSpace=wrap;html=1;" parent="1" vertex="1">
          <mxGeometry x="530" y="590" width="120" height="80" as="geometry" />
        </mxCell>
        <mxCell id="xa4s_tNgX6mTq1DxwBig-7" value="telefono_cliente" style="ellipse;whiteSpace=wrap;html=1;" parent="1" vertex="1">
          <mxGeometry x="530" y="490" width="120" height="80" as="geometry" />
        </mxCell>
        <mxCell id="xa4s_tNgX6mTq1DxwBig-8" value="nacimiento_cliente" style="ellipse;whiteSpace=wrap;html=1;" parent="1" vertex="1">
          <mxGeometry x="750" y="490" width="120" height="80" as="geometry" />
        </mxCell>
        <mxCell id="xa4s_tNgX6mTq1DxwBig-9" value="direccion_cliente" style="ellipse;whiteSpace=wrap;html=1;" parent="1" vertex="1">
          <mxGeometry x="750" y="590" width="120" height="80" as="geometry" />
        </mxCell>
        <mxCell id="xa4s_tNgX6mTq1DxwBig-10" value="clave_cliente" style="ellipse;whiteSpace=wrap;html=1;" parent="1" vertex="1">
          <mxGeometry x="750" y="680" width="120" height="80" as="geometry" />
        </mxCell>
        <mxCell id="xa4s_tNgX6mTq1DxwBig-11" value="fecha_registro" style="ellipse;whiteSpace=wrap;html=1;" parent="1" vertex="1">
          <mxGeometry x="750" y="780" width="120" height="80" as="geometry" />
        </mxCell>
        <mxCell id="xa4s_tNgX6mTq1DxwBig-28" style="edgeStyle=orthogonalEdgeStyle;rounded=0;orthogonalLoop=1;jettySize=auto;html=1;entryX=0.5;entryY=1;entryDx=0;entryDy=0;" parent="1" source="xa4s_tNgX6mTq1DxwBig-22" target="xa4s_tNgX6mTq1DxwBig-23" edge="1">
          <mxGeometry relative="1" as="geometry" />
        </mxCell>
        <mxCell id="xa4s_tNgX6mTq1DxwBig-29" style="edgeStyle=orthogonalEdgeStyle;rounded=0;orthogonalLoop=1;jettySize=auto;html=1;entryX=0.5;entryY=1;entryDx=0;entryDy=0;" parent="1" source="xa4s_tNgX6mTq1DxwBig-22" target="xa4s_tNgX6mTq1DxwBig-26" edge="1">
          <mxGeometry relative="1" as="geometry" />
        </mxCell>
        <mxCell id="xa4s_tNgX6mTq1DxwBig-30" style="edgeStyle=orthogonalEdgeStyle;rounded=0;orthogonalLoop=1;jettySize=auto;html=1;entryX=0.5;entryY=1;entryDx=0;entryDy=0;" parent="1" source="xa4s_tNgX6mTq1DxwBig-22" target="xa4s_tNgX6mTq1DxwBig-27" edge="1">
          <mxGeometry relative="1" as="geometry">
            <Array as="points">
              <mxPoint x="910" y="1069" />
            </Array>
          </mxGeometry>
        </mxCell>
        <mxCell id="xa4s_tNgX6mTq1DxwBig-31" style="edgeStyle=orthogonalEdgeStyle;rounded=0;orthogonalLoop=1;jettySize=auto;html=1;entryX=0.5;entryY=0;entryDx=0;entryDy=0;" parent="1" source="xa4s_tNgX6mTq1DxwBig-22" target="xa4s_tNgX6mTq1DxwBig-24" edge="1">
          <mxGeometry relative="1" as="geometry" />
        </mxCell>
        <mxCell id="xa4s_tNgX6mTq1DxwBig-32" style="edgeStyle=orthogonalEdgeStyle;rounded=0;orthogonalLoop=1;jettySize=auto;html=1;entryX=0.5;entryY=0;entryDx=0;entryDy=0;" parent="1" source="xa4s_tNgX6mTq1DxwBig-22" target="xa4s_tNgX6mTq1DxwBig-25" edge="1">
          <mxGeometry relative="1" as="geometry" />
        </mxCell>
        <mxCell id="xa4s_tNgX6mTq1DxwBig-22" value="tb_pedidos" style="rounded=0;whiteSpace=wrap;html=1;" parent="1" vertex="1">
          <mxGeometry x="420" y="1039" width="120" height="60" as="geometry" />
        </mxCell>
        <mxCell id="xa4s_tNgX6mTq1DxwBig-23" value="id_pedido" style="ellipse;whiteSpace=wrap;html=1;fontStyle=4" parent="1" vertex="1">
          <mxGeometry x="580" y="969" width="120" height="80" as="geometry" />
        </mxCell>
        <mxCell id="xa4s_tNgX6mTq1DxwBig-24" value="id_cliente" style="ellipse;whiteSpace=wrap;html=1;" parent="1" vertex="1">
          <mxGeometry x="580" y="1089" width="120" height="80" as="geometry" />
        </mxCell>
        <mxCell id="xa4s_tNgX6mTq1DxwBig-25" value="estado_pedido" style="ellipse;whiteSpace=wrap;html=1;" parent="1" vertex="1">
          <mxGeometry x="720" y="1089" width="120" height="80" as="geometry" />
        </mxCell>
        <mxCell id="xa4s_tNgX6mTq1DxwBig-26" value="fecha_registro" style="ellipse;whiteSpace=wrap;html=1;" parent="1" vertex="1">
          <mxGeometry x="720" y="969" width="120" height="80" as="geometry" />
        </mxCell>
        <mxCell id="xa4s_tNgX6mTq1DxwBig-27" value="direccion_pedido" style="ellipse;whiteSpace=wrap;html=1;" parent="1" vertex="1">
          <mxGeometry x="850" y="969" width="120" height="80" as="geometry" />
        </mxCell>
        <mxCell id="7BsHOhPz-HNR1gg9W9UU-41" style="edgeStyle=orthogonalEdgeStyle;rounded=0;orthogonalLoop=1;jettySize=auto;html=1;entryX=0;entryY=0.5;entryDx=0;entryDy=0;" parent="1" source="xa4s_tNgX6mTq1DxwBig-33" target="xa4s_tNgX6mTq1DxwBig-35" edge="1">
          <mxGeometry relative="1" as="geometry" />
        </mxCell>
        <mxCell id="7BsHOhPz-HNR1gg9W9UU-42" style="edgeStyle=orthogonalEdgeStyle;rounded=0;orthogonalLoop=1;jettySize=auto;html=1;" parent="1" source="xa4s_tNgX6mTq1DxwBig-33" target="xa4s_tNgX6mTq1DxwBig-34" edge="1">
          <mxGeometry relative="1" as="geometry" />
        </mxCell>
        <mxCell id="xa4s_tNgX6mTq1DxwBig-33" value="tb_categorias" style="rounded=0;whiteSpace=wrap;html=1;" parent="1" vertex="1">
          <mxGeometry x="-230" y="1920" width="120" height="60" as="geometry" />
        </mxCell>
        <mxCell id="xa4s_tNgX6mTq1DxwBig-34" value="id_categoria" style="ellipse;whiteSpace=wrap;html=1;fontStyle=4" parent="1" vertex="1">
          <mxGeometry x="-100" y="1990" width="120" height="80" as="geometry" />
        </mxCell>
        <mxCell id="xa4s_tNgX6mTq1DxwBig-35" value="nombre_categoria" style="ellipse;whiteSpace=wrap;html=1;" parent="1" vertex="1">
          <mxGeometry x="10" y="1910" width="120" height="80" as="geometry" />
        </mxCell>
        <mxCell id="xa4s_tNgX6mTq1DxwBig-45" style="edgeStyle=orthogonalEdgeStyle;rounded=0;orthogonalLoop=1;jettySize=auto;html=1;entryX=1;entryY=0.5;entryDx=0;entryDy=0;" parent="1" source="xa4s_tNgX6mTq1DxwBig-38" target="xa4s_tNgX6mTq1DxwBig-42" edge="1">
          <mxGeometry relative="1" as="geometry" />
        </mxCell>
        <mxCell id="xa4s_tNgX6mTq1DxwBig-46" style="edgeStyle=orthogonalEdgeStyle;rounded=0;orthogonalLoop=1;jettySize=auto;html=1;entryX=0;entryY=0.5;entryDx=0;entryDy=0;" parent="1" source="xa4s_tNgX6mTq1DxwBig-38" target="xa4s_tNgX6mTq1DxwBig-39" edge="1">
          <mxGeometry relative="1" as="geometry" />
        </mxCell>
        <mxCell id="xa4s_tNgX6mTq1DxwBig-47" style="edgeStyle=orthogonalEdgeStyle;rounded=0;orthogonalLoop=1;jettySize=auto;html=1;entryX=1;entryY=0.5;entryDx=0;entryDy=0;" parent="1" source="xa4s_tNgX6mTq1DxwBig-38" target="xa4s_tNgX6mTq1DxwBig-43" edge="1">
          <mxGeometry relative="1" as="geometry" />
        </mxCell>
        <mxCell id="xa4s_tNgX6mTq1DxwBig-48" style="edgeStyle=orthogonalEdgeStyle;rounded=0;orthogonalLoop=1;jettySize=auto;html=1;entryX=0;entryY=0.5;entryDx=0;entryDy=0;" parent="1" source="xa4s_tNgX6mTq1DxwBig-38" target="xa4s_tNgX6mTq1DxwBig-40" edge="1">
          <mxGeometry relative="1" as="geometry" />
        </mxCell>
        <mxCell id="xa4s_tNgX6mTq1DxwBig-49" style="edgeStyle=orthogonalEdgeStyle;rounded=0;orthogonalLoop=1;jettySize=auto;html=1;entryX=1;entryY=0.5;entryDx=0;entryDy=0;" parent="1" source="xa4s_tNgX6mTq1DxwBig-38" target="xa4s_tNgX6mTq1DxwBig-44" edge="1">
          <mxGeometry relative="1" as="geometry" />
        </mxCell>
        <mxCell id="xa4s_tNgX6mTq1DxwBig-50" style="edgeStyle=orthogonalEdgeStyle;rounded=0;orthogonalLoop=1;jettySize=auto;html=1;entryX=0;entryY=0.5;entryDx=0;entryDy=0;" parent="1" source="xa4s_tNgX6mTq1DxwBig-38" target="xa4s_tNgX6mTq1DxwBig-41" edge="1">
          <mxGeometry relative="1" as="geometry" />
        </mxCell>
        <mxCell id="NpXi_9fuNtGS7JvnG2wx-26" style="edgeStyle=orthogonalEdgeStyle;rounded=0;orthogonalLoop=1;jettySize=auto;html=1;entryX=0.5;entryY=0;entryDx=0;entryDy=0;" edge="1" parent="1" source="xa4s_tNgX6mTq1DxwBig-38" target="NpXi_9fuNtGS7JvnG2wx-25">
          <mxGeometry relative="1" as="geometry" />
        </mxCell>
        <mxCell id="xa4s_tNgX6mTq1DxwBig-38" value="tb_administradores" style="rounded=0;whiteSpace=wrap;html=1;" parent="1" vertex="1">
          <mxGeometry x="-620" y="1531.5" width="120" height="60" as="geometry" />
        </mxCell>
        <mxCell id="xa4s_tNgX6mTq1DxwBig-39" value="id_administrador" style="ellipse;whiteSpace=wrap;html=1;fontStyle=4" parent="1" vertex="1">
          <mxGeometry x="-530" y="1819" width="120" height="80" as="geometry" />
        </mxCell>
        <mxCell id="xa4s_tNgX6mTq1DxwBig-40" value="nombre_administrador" style="ellipse;whiteSpace=wrap;html=1;" parent="1" vertex="1">
          <mxGeometry x="-530" y="1719" width="120" height="80" as="geometry" />
        </mxCell>
        <mxCell id="xa4s_tNgX6mTq1DxwBig-41" value="apellido_administrador" style="ellipse;whiteSpace=wrap;html=1;" parent="1" vertex="1">
          <mxGeometry x="-530" y="1619" width="120" height="80" as="geometry" />
        </mxCell>
        <mxCell id="xa4s_tNgX6mTq1DxwBig-42" value="correo_administrador" style="ellipse;whiteSpace=wrap;html=1;" parent="1" vertex="1">
          <mxGeometry x="-710" y="1819" width="120" height="80" as="geometry" />
        </mxCell>
        <mxCell id="xa4s_tNgX6mTq1DxwBig-43" value="clave_administrador" style="ellipse;whiteSpace=wrap;html=1;" parent="1" vertex="1">
          <mxGeometry x="-710" y="1719" width="120" height="80" as="geometry" />
        </mxCell>
        <mxCell id="xa4s_tNgX6mTq1DxwBig-44" value="fecha_registro" style="ellipse;whiteSpace=wrap;html=1;" parent="1" vertex="1">
          <mxGeometry x="-710" y="1619" width="120" height="80" as="geometry" />
        </mxCell>
        <mxCell id="xa4s_tNgX6mTq1DxwBig-61" style="edgeStyle=orthogonalEdgeStyle;rounded=0;orthogonalLoop=1;jettySize=auto;html=1;entryX=0.5;entryY=1;entryDx=0;entryDy=0;" parent="1" target="xa4s_tNgX6mTq1DxwBig-59" edge="1">
          <mxGeometry relative="1" as="geometry">
            <mxPoint x="-260" y="840" as="sourcePoint" />
          </mxGeometry>
        </mxCell>
        <mxCell id="xa4s_tNgX6mTq1DxwBig-62" style="edgeStyle=orthogonalEdgeStyle;rounded=0;orthogonalLoop=1;jettySize=auto;html=1;entryX=0.5;entryY=0;entryDx=0;entryDy=0;" parent="1" target="xa4s_tNgX6mTq1DxwBig-60" edge="1">
          <mxGeometry relative="1" as="geometry">
            <mxPoint x="-260" y="840" as="sourcePoint" />
          </mxGeometry>
        </mxCell>
        <mxCell id="xa4s_tNgX6mTq1DxwBig-64" style="edgeStyle=orthogonalEdgeStyle;rounded=0;orthogonalLoop=1;jettySize=auto;html=1;entryX=1;entryY=0.5;entryDx=0;entryDy=0;exitX=0;exitY=0.5;exitDx=0;exitDy=0;" parent="1" source="xa4s_tNgX6mTq1DxwBig-58" target="xa4s_tNgX6mTq1DxwBig-63" edge="1">
          <mxGeometry relative="1" as="geometry">
            <mxPoint x="-260" y="840" as="sourcePoint" />
          </mxGeometry>
        </mxCell>
        <mxCell id="xa4s_tNgX6mTq1DxwBig-58" value="tb_valoraciones" style="rounded=0;whiteSpace=wrap;html=1;" parent="1" vertex="1">
          <mxGeometry x="-310" y="810" width="120" height="60" as="geometry" />
        </mxCell>
        <mxCell id="xa4s_tNgX6mTq1DxwBig-59" value="id_valoracion" style="ellipse;whiteSpace=wrap;html=1;fontStyle=4" parent="1" vertex="1">
          <mxGeometry x="-450" y="730" width="120" height="80" as="geometry" />
        </mxCell>
        <mxCell id="xa4s_tNgX6mTq1DxwBig-60" value="calificacion_producto" style="ellipse;whiteSpace=wrap;html=1;" parent="1" vertex="1">
          <mxGeometry x="-450" y="870" width="120" height="80" as="geometry" />
        </mxCell>
        <mxCell id="xa4s_tNgX6mTq1DxwBig-63" value="fecha_valoracion" style="ellipse;whiteSpace=wrap;html=1;" parent="1" vertex="1">
          <mxGeometry x="-560" y="800" width="120" height="80" as="geometry" />
        </mxCell>
        <mxCell id="xa4s_tNgX6mTq1DxwBig-76" style="edgeStyle=orthogonalEdgeStyle;rounded=0;orthogonalLoop=1;jettySize=auto;html=1;entryX=1;entryY=0.5;entryDx=0;entryDy=0;" parent="1" source="xa4s_tNgX6mTq1DxwBig-65" target="xa4s_tNgX6mTq1DxwBig-66" edge="1">
          <mxGeometry relative="1" as="geometry" />
        </mxCell>
        <mxCell id="xa4s_tNgX6mTq1DxwBig-77" style="edgeStyle=orthogonalEdgeStyle;rounded=0;orthogonalLoop=1;jettySize=auto;html=1;entryX=0;entryY=0.5;entryDx=0;entryDy=0;" parent="1" source="xa4s_tNgX6mTq1DxwBig-65" target="xa4s_tNgX6mTq1DxwBig-71" edge="1">
          <mxGeometry relative="1" as="geometry" />
        </mxCell>
        <mxCell id="xa4s_tNgX6mTq1DxwBig-78" style="edgeStyle=orthogonalEdgeStyle;rounded=0;orthogonalLoop=1;jettySize=auto;html=1;entryX=1;entryY=0.5;entryDx=0;entryDy=0;" parent="1" source="xa4s_tNgX6mTq1DxwBig-65" target="xa4s_tNgX6mTq1DxwBig-67" edge="1">
          <mxGeometry relative="1" as="geometry" />
        </mxCell>
        <mxCell id="xa4s_tNgX6mTq1DxwBig-79" style="edgeStyle=orthogonalEdgeStyle;rounded=0;orthogonalLoop=1;jettySize=auto;html=1;entryX=0;entryY=0.5;entryDx=0;entryDy=0;" parent="1" source="xa4s_tNgX6mTq1DxwBig-65" target="xa4s_tNgX6mTq1DxwBig-72" edge="1">
          <mxGeometry relative="1" as="geometry" />
        </mxCell>
        <mxCell id="xa4s_tNgX6mTq1DxwBig-80" style="edgeStyle=orthogonalEdgeStyle;rounded=0;orthogonalLoop=1;jettySize=auto;html=1;entryX=1;entryY=0.5;entryDx=0;entryDy=0;" parent="1" source="xa4s_tNgX6mTq1DxwBig-65" target="xa4s_tNgX6mTq1DxwBig-68" edge="1">
          <mxGeometry relative="1" as="geometry" />
        </mxCell>
        <mxCell id="xa4s_tNgX6mTq1DxwBig-82" style="edgeStyle=orthogonalEdgeStyle;rounded=0;orthogonalLoop=1;jettySize=auto;html=1;entryX=1;entryY=0.5;entryDx=0;entryDy=0;" parent="1" source="xa4s_tNgX6mTq1DxwBig-65" target="xa4s_tNgX6mTq1DxwBig-69" edge="1">
          <mxGeometry relative="1" as="geometry" />
        </mxCell>
        <mxCell id="xa4s_tNgX6mTq1DxwBig-83" style="edgeStyle=orthogonalEdgeStyle;rounded=0;orthogonalLoop=1;jettySize=auto;html=1;entryX=0;entryY=0.5;entryDx=0;entryDy=0;" parent="1" source="xa4s_tNgX6mTq1DxwBig-65" target="xa4s_tNgX6mTq1DxwBig-74" edge="1">
          <mxGeometry relative="1" as="geometry" />
        </mxCell>
        <mxCell id="xa4s_tNgX6mTq1DxwBig-84" style="edgeStyle=orthogonalEdgeStyle;rounded=0;orthogonalLoop=1;jettySize=auto;html=1;entryX=1;entryY=0.5;entryDx=0;entryDy=0;" parent="1" source="xa4s_tNgX6mTq1DxwBig-65" target="xa4s_tNgX6mTq1DxwBig-70" edge="1">
          <mxGeometry relative="1" as="geometry" />
        </mxCell>
        <mxCell id="xa4s_tNgX6mTq1DxwBig-85" style="edgeStyle=orthogonalEdgeStyle;rounded=0;orthogonalLoop=1;jettySize=auto;html=1;entryX=0;entryY=0.5;entryDx=0;entryDy=0;" parent="1" source="xa4s_tNgX6mTq1DxwBig-65" target="xa4s_tNgX6mTq1DxwBig-75" edge="1">
          <mxGeometry relative="1" as="geometry" />
        </mxCell>
        <mxCell id="NpXi_9fuNtGS7JvnG2wx-29" style="edgeStyle=orthogonalEdgeStyle;rounded=0;orthogonalLoop=1;jettySize=auto;html=1;entryX=0;entryY=0.5;entryDx=0;entryDy=0;" edge="1" parent="1" source="xa4s_tNgX6mTq1DxwBig-65" target="NpXi_9fuNtGS7JvnG2wx-28">
          <mxGeometry relative="1" as="geometry" />
        </mxCell>
        <mxCell id="NpXi_9fuNtGS7JvnG2wx-36" style="edgeStyle=orthogonalEdgeStyle;rounded=0;orthogonalLoop=1;jettySize=auto;html=1;" edge="1" parent="1" source="xa4s_tNgX6mTq1DxwBig-65" target="NpXi_9fuNtGS7JvnG2wx-35">
          <mxGeometry relative="1" as="geometry" />
        </mxCell>
        <mxCell id="xa4s_tNgX6mTq1DxwBig-65" value="tb_productos" style="rounded=0;whiteSpace=wrap;html=1;" parent="1" vertex="1">
          <mxGeometry x="-100" y="1169" width="120" height="60" as="geometry" />
        </mxCell>
        <mxCell id="xa4s_tNgX6mTq1DxwBig-66" value="id_producto" style="ellipse;whiteSpace=wrap;html=1;fontStyle=4" parent="1" vertex="1">
          <mxGeometry x="-210" y="1269" width="120" height="80" as="geometry" />
        </mxCell>
        <mxCell id="xa4s_tNgX6mTq1DxwBig-67" value="id_categoria" style="ellipse;whiteSpace=wrap;html=1;" parent="1" vertex="1">
          <mxGeometry x="-210" y="1369" width="120" height="80" as="geometry" />
        </mxCell>
        <mxCell id="xa4s_tNgX6mTq1DxwBig-68" value="nombre_producto" style="ellipse;whiteSpace=wrap;html=1;" parent="1" vertex="1">
          <mxGeometry x="-210" y="1469" width="120" height="80" as="geometry" />
        </mxCell>
        <mxCell id="xa4s_tNgX6mTq1DxwBig-69" value="descripcion_producto" style="ellipse;whiteSpace=wrap;html=1;" parent="1" vertex="1">
          <mxGeometry x="-210" y="1569" width="120" height="80" as="geometry" />
        </mxCell>
        <mxCell id="xa4s_tNgX6mTq1DxwBig-70" value="precio_producto" style="ellipse;whiteSpace=wrap;html=1;" parent="1" vertex="1">
          <mxGeometry x="-210" y="1674" width="120" height="80" as="geometry" />
        </mxCell>
        <mxCell id="xa4s_tNgX6mTq1DxwBig-71" value="id_marca" style="ellipse;whiteSpace=wrap;html=1;" parent="1" vertex="1">
          <mxGeometry y="1269" width="120" height="80" as="geometry" />
        </mxCell>
        <mxCell id="xa4s_tNgX6mTq1DxwBig-72" value="estado" style="ellipse;whiteSpace=wrap;html=1;" parent="1" vertex="1">
          <mxGeometry y="1369" width="120" height="80" as="geometry" />
        </mxCell>
        <mxCell id="xa4s_tNgX6mTq1DxwBig-74" value="fecha_registro" style="ellipse;whiteSpace=wrap;html=1;" parent="1" vertex="1">
          <mxGeometry x="5" y="1469" width="120" height="80" as="geometry" />
        </mxCell>
        <mxCell id="xa4s_tNgX6mTq1DxwBig-75" value="id_administrador" style="ellipse;whiteSpace=wrap;html=1;" parent="1" vertex="1">
          <mxGeometry x="10" y="1569" width="120" height="80" as="geometry" />
        </mxCell>
        <mxCell id="xa4s_tNgX6mTq1DxwBig-92" style="edgeStyle=orthogonalEdgeStyle;rounded=0;orthogonalLoop=1;jettySize=auto;html=1;entryX=0.5;entryY=1;entryDx=0;entryDy=0;" parent="1" source="xa4s_tNgX6mTq1DxwBig-86" target="xa4s_tNgX6mTq1DxwBig-87" edge="1">
          <mxGeometry relative="1" as="geometry" />
        </mxCell>
        <mxCell id="xa4s_tNgX6mTq1DxwBig-93" style="edgeStyle=orthogonalEdgeStyle;rounded=0;orthogonalLoop=1;jettySize=auto;html=1;entryX=0.5;entryY=0;entryDx=0;entryDy=0;" parent="1" source="xa4s_tNgX6mTq1DxwBig-86" target="xa4s_tNgX6mTq1DxwBig-88" edge="1">
          <mxGeometry relative="1" as="geometry" />
        </mxCell>
        <mxCell id="xa4s_tNgX6mTq1DxwBig-94" style="edgeStyle=orthogonalEdgeStyle;rounded=0;orthogonalLoop=1;jettySize=auto;html=1;entryX=0.5;entryY=1;entryDx=0;entryDy=0;" parent="1" source="xa4s_tNgX6mTq1DxwBig-86" target="xa4s_tNgX6mTq1DxwBig-89" edge="1">
          <mxGeometry relative="1" as="geometry" />
        </mxCell>
        <mxCell id="xa4s_tNgX6mTq1DxwBig-95" style="edgeStyle=orthogonalEdgeStyle;rounded=0;orthogonalLoop=1;jettySize=auto;html=1;entryX=0.5;entryY=0;entryDx=0;entryDy=0;" parent="1" source="xa4s_tNgX6mTq1DxwBig-86" target="xa4s_tNgX6mTq1DxwBig-90" edge="1">
          <mxGeometry relative="1" as="geometry" />
        </mxCell>
        <mxCell id="xa4s_tNgX6mTq1DxwBig-96" style="edgeStyle=orthogonalEdgeStyle;rounded=0;orthogonalLoop=1;jettySize=auto;html=1;" parent="1" source="xa4s_tNgX6mTq1DxwBig-86" target="xa4s_tNgX6mTq1DxwBig-91" edge="1">
          <mxGeometry relative="1" as="geometry" />
        </mxCell>
        <mxCell id="xa4s_tNgX6mTq1DxwBig-86" value="tb_detalles_pedidos" style="rounded=0;whiteSpace=wrap;html=1;" parent="1" vertex="1">
          <mxGeometry x="420" y="1309" width="120" height="60" as="geometry" />
        </mxCell>
        <mxCell id="xa4s_tNgX6mTq1DxwBig-87" value="id_detalle" style="ellipse;whiteSpace=wrap;html=1;fontStyle=4" parent="1" vertex="1">
          <mxGeometry x="580" y="1229" width="120" height="80" as="geometry" />
        </mxCell>
        <mxCell id="xa4s_tNgX6mTq1DxwBig-88" value="id_pedido" style="ellipse;whiteSpace=wrap;html=1;" parent="1" vertex="1">
          <mxGeometry x="580" y="1369" width="120" height="80" as="geometry" />
        </mxCell>
        <mxCell id="xa4s_tNgX6mTq1DxwBig-89" value="id_producto" style="ellipse;whiteSpace=wrap;html=1;" parent="1" vertex="1">
          <mxGeometry x="720" y="1229" width="120" height="80" as="geometry" />
        </mxCell>
        <mxCell id="xa4s_tNgX6mTq1DxwBig-90" value="cantidad_producto" style="ellipse;whiteSpace=wrap;html=1;" parent="1" vertex="1">
          <mxGeometry x="720" y="1369" width="120" height="80" as="geometry" />
        </mxCell>
        <mxCell id="xa4s_tNgX6mTq1DxwBig-91" value="precio_producto" style="ellipse;whiteSpace=wrap;html=1;" parent="1" vertex="1">
          <mxGeometry x="840" y="1299" width="120" height="80" as="geometry" />
        </mxCell>
        <mxCell id="1BwzcU19pFz0WHQVYYsO-3" style="edgeStyle=orthogonalEdgeStyle;rounded=0;orthogonalLoop=1;jettySize=auto;html=1;entryX=0.5;entryY=0;entryDx=0;entryDy=0;endArrow=ERoneToMany;endFill=0;" parent="1" source="1BwzcU19pFz0WHQVYYsO-2" target="xa4s_tNgX6mTq1DxwBig-22" edge="1">
          <mxGeometry relative="1" as="geometry" />
        </mxCell>
        <mxCell id="1BwzcU19pFz0WHQVYYsO-4" style="edgeStyle=orthogonalEdgeStyle;rounded=0;orthogonalLoop=1;jettySize=auto;html=1;entryX=0.5;entryY=1;entryDx=0;entryDy=0;endArrow=ERoneToMany;endFill=0;" parent="1" source="1BwzcU19pFz0WHQVYYsO-2" target="xa4s_tNgX6mTq1DxwBig-1" edge="1">
          <mxGeometry relative="1" as="geometry" />
        </mxCell>
        <mxCell id="1BwzcU19pFz0WHQVYYsO-2" value="Tiene" style="rhombus;whiteSpace=wrap;html=1;" parent="1" vertex="1">
          <mxGeometry x="440" y="889" width="80" height="80" as="geometry" />
        </mxCell>
        <mxCell id="1BwzcU19pFz0WHQVYYsO-6" style="edgeStyle=orthogonalEdgeStyle;rounded=0;orthogonalLoop=1;jettySize=auto;html=1;entryX=0.5;entryY=1;entryDx=0;entryDy=0;endArrow=ERoneToMany;endFill=0;" parent="1" source="1BwzcU19pFz0WHQVYYsO-5" target="xa4s_tNgX6mTq1DxwBig-22" edge="1">
          <mxGeometry relative="1" as="geometry" />
        </mxCell>
        <mxCell id="1BwzcU19pFz0WHQVYYsO-7" style="edgeStyle=orthogonalEdgeStyle;rounded=0;orthogonalLoop=1;jettySize=auto;html=1;entryX=0.5;entryY=0;entryDx=0;entryDy=0;endArrow=ERoneToMany;endFill=0;" parent="1" source="1BwzcU19pFz0WHQVYYsO-5" target="xa4s_tNgX6mTq1DxwBig-86" edge="1">
          <mxGeometry relative="1" as="geometry" />
        </mxCell>
        <mxCell id="1BwzcU19pFz0WHQVYYsO-5" value="Tiene" style="rhombus;whiteSpace=wrap;html=1;" parent="1" vertex="1">
          <mxGeometry x="440" y="1169" width="80" height="80" as="geometry" />
        </mxCell>
        <mxCell id="1BwzcU19pFz0WHQVYYsO-9" style="edgeStyle=orthogonalEdgeStyle;rounded=0;orthogonalLoop=1;jettySize=auto;html=1;entryX=0;entryY=0.75;entryDx=0;entryDy=0;exitX=1;exitY=0.5;exitDx=0;exitDy=0;endArrow=ERoneToMany;endFill=0;" parent="1" source="1BwzcU19pFz0WHQVYYsO-8" target="xa4s_tNgX6mTq1DxwBig-86" edge="1">
          <mxGeometry relative="1" as="geometry">
            <mxPoint x="330.00000000000045" y="1039" as="sourcePoint" />
            <Array as="points">
              <mxPoint x="320" y="1267" />
              <mxPoint x="320" y="1354" />
            </Array>
          </mxGeometry>
        </mxCell>
        <mxCell id="1BwzcU19pFz0WHQVYYsO-10" style="edgeStyle=orthogonalEdgeStyle;rounded=0;orthogonalLoop=1;jettySize=auto;html=1;entryX=1;entryY=0.25;entryDx=0;entryDy=0;endArrow=ERoneToMany;endFill=0;" parent="1" target="xa4s_tNgX6mTq1DxwBig-65" edge="1">
          <mxGeometry relative="1" as="geometry">
            <mxPoint x="200" y="1267" as="sourcePoint" />
          </mxGeometry>
        </mxCell>
        <mxCell id="1BwzcU19pFz0WHQVYYsO-8" value="Tiene" style="rhombus;whiteSpace=wrap;html=1;" parent="1" vertex="1">
          <mxGeometry x="200" y="1227" width="80" height="80" as="geometry" />
        </mxCell>
        <mxCell id="rhck_SnzIpGOyOcg27Mm-20" style="edgeStyle=orthogonalEdgeStyle;rounded=0;orthogonalLoop=1;jettySize=auto;html=1;entryX=0.5;entryY=0;entryDx=0;entryDy=0;" parent="1" source="1BwzcU19pFz0WHQVYYsO-33" target="1BwzcU19pFz0WHQVYYsO-34" edge="1">
          <mxGeometry relative="1" as="geometry" />
        </mxCell>
        <mxCell id="rhck_SnzIpGOyOcg27Mm-21" style="edgeStyle=orthogonalEdgeStyle;rounded=0;orthogonalLoop=1;jettySize=auto;html=1;entryX=0.5;entryY=1;entryDx=0;entryDy=0;" parent="1" source="1BwzcU19pFz0WHQVYYsO-33" target="1BwzcU19pFz0WHQVYYsO-35" edge="1">
          <mxGeometry relative="1" as="geometry" />
        </mxCell>
        <mxCell id="1BwzcU19pFz0WHQVYYsO-33" value="tb_cargos" style="rounded=0;whiteSpace=wrap;html=1;" parent="1" vertex="1">
          <mxGeometry x="-1020" y="1520" width="120" height="60" as="geometry" />
        </mxCell>
        <mxCell id="1BwzcU19pFz0WHQVYYsO-34" value="id_cargo" style="ellipse;whiteSpace=wrap;html=1;fontStyle=4" parent="1" vertex="1">
          <mxGeometry x="-1170" y="1580" width="120" height="80" as="geometry" />
        </mxCell>
        <mxCell id="1BwzcU19pFz0WHQVYYsO-35" value="nombre_cargo" style="ellipse;whiteSpace=wrap;html=1;" parent="1" vertex="1">
          <mxGeometry x="-1170" y="1440" width="120" height="80" as="geometry" />
        </mxCell>
        <mxCell id="1BwzcU19pFz0WHQVYYsO-44" style="edgeStyle=orthogonalEdgeStyle;rounded=0;orthogonalLoop=1;jettySize=auto;html=1;entryX=0.5;entryY=1;entryDx=0;entryDy=0;exitX=0.75;exitY=0;exitDx=0;exitDy=0;" parent="1" source="1BwzcU19pFz0WHQVYYsO-45" target="1BwzcU19pFz0WHQVYYsO-46" edge="1">
          <mxGeometry relative="1" as="geometry" />
        </mxCell>
        <mxCell id="rhck_SnzIpGOyOcg27Mm-5" style="edgeStyle=orthogonalEdgeStyle;rounded=0;orthogonalLoop=1;jettySize=auto;html=1;exitX=0.25;exitY=0;exitDx=0;exitDy=0;entryX=1;entryY=1;entryDx=0;entryDy=0;" parent="1" source="1BwzcU19pFz0WHQVYYsO-45" target="1BwzcU19pFz0WHQVYYsO-47" edge="1">
          <mxGeometry relative="1" as="geometry" />
        </mxCell>
        <mxCell id="NpXi_9fuNtGS7JvnG2wx-34" style="edgeStyle=orthogonalEdgeStyle;rounded=0;orthogonalLoop=1;jettySize=auto;html=1;entryX=1;entryY=0.5;entryDx=0;entryDy=0;" edge="1" parent="1" source="1BwzcU19pFz0WHQVYYsO-45" target="NpXi_9fuNtGS7JvnG2wx-33">
          <mxGeometry relative="1" as="geometry" />
        </mxCell>
        <mxCell id="1BwzcU19pFz0WHQVYYsO-45" value="tb_marcas" style="rounded=0;whiteSpace=wrap;html=1;" parent="1" vertex="1">
          <mxGeometry x="-577" y="1119" width="120" height="60" as="geometry" />
        </mxCell>
        <mxCell id="1BwzcU19pFz0WHQVYYsO-46" value="id_marca" style="ellipse;whiteSpace=wrap;html=1;fontStyle=4" parent="1" vertex="1">
          <mxGeometry x="-497" y="988" width="120" height="80" as="geometry" />
        </mxCell>
        <mxCell id="1BwzcU19pFz0WHQVYYsO-47" value="nombre_marca" style="ellipse;whiteSpace=wrap;html=1;" parent="1" vertex="1">
          <mxGeometry x="-627" y="999" width="120" height="80" as="geometry" />
        </mxCell>
        <mxCell id="1BwzcU19pFz0WHQVYYsO-54" value="N" style="text;html=1;align=center;verticalAlign=middle;resizable=0;points=[];autosize=1;strokeColor=none;fillColor=none;" parent="1" vertex="1">
          <mxGeometry x="-140" y="1229" width="30" height="30" as="geometry" />
        </mxCell>
        <mxCell id="1BwzcU19pFz0WHQVYYsO-61" value="N" style="text;html=1;align=center;verticalAlign=middle;resizable=0;points=[];autosize=1;strokeColor=none;fillColor=none;" parent="1" vertex="1">
          <mxGeometry x="395" y="1324" width="30" height="30" as="geometry" />
        </mxCell>
        <mxCell id="1BwzcU19pFz0WHQVYYsO-62" value="N" style="text;html=1;align=center;verticalAlign=middle;resizable=0;points=[];autosize=1;strokeColor=none;fillColor=none;" parent="1" vertex="1">
          <mxGeometry x="475" y="1277" width="30" height="30" as="geometry" />
        </mxCell>
        <mxCell id="1BwzcU19pFz0WHQVYYsO-63" value="N" style="text;html=1;align=center;verticalAlign=middle;resizable=0;points=[];autosize=1;strokeColor=none;fillColor=none;" parent="1" vertex="1">
          <mxGeometry x="485" y="1097" width="30" height="30" as="geometry" />
        </mxCell>
        <mxCell id="1BwzcU19pFz0WHQVYYsO-64" value="1" style="text;html=1;align=center;verticalAlign=middle;resizable=0;points=[];autosize=1;strokeColor=none;fillColor=none;" parent="1" vertex="1">
          <mxGeometry x="450" y="1097" width="30" height="30" as="geometry" />
        </mxCell>
        <mxCell id="1BwzcU19pFz0WHQVYYsO-66" value="1" style="text;html=1;align=center;verticalAlign=middle;resizable=0;points=[];autosize=1;strokeColor=none;fillColor=none;" parent="1" vertex="1">
          <mxGeometry x="450" y="1277" width="30" height="30" as="geometry" />
        </mxCell>
        <mxCell id="1BwzcU19pFz0WHQVYYsO-67" value="1" style="text;html=1;align=center;verticalAlign=middle;resizable=0;points=[];autosize=1;strokeColor=none;fillColor=none;" parent="1" vertex="1">
          <mxGeometry x="500" y="840" width="30" height="30" as="geometry" />
        </mxCell>
        <mxCell id="1BwzcU19pFz0WHQVYYsO-68" value="N" style="text;html=1;align=center;verticalAlign=middle;resizable=0;points=[];autosize=1;strokeColor=none;fillColor=none;" parent="1" vertex="1">
          <mxGeometry x="480" y="1009" width="30" height="30" as="geometry" />
        </mxCell>
        <mxCell id="7BsHOhPz-HNR1gg9W9UU-12" style="edgeStyle=orthogonalEdgeStyle;rounded=0;orthogonalLoop=1;jettySize=auto;html=1;entryX=1;entryY=0.5;entryDx=0;entryDy=0;" parent="1" source="7BsHOhPz-HNR1gg9W9UU-14" target="7BsHOhPz-HNR1gg9W9UU-16" edge="1">
          <mxGeometry relative="1" as="geometry" />
        </mxCell>
        <mxCell id="7BsHOhPz-HNR1gg9W9UU-33" style="edgeStyle=orthogonalEdgeStyle;rounded=0;orthogonalLoop=1;jettySize=auto;html=1;entryX=0.5;entryY=0;entryDx=0;entryDy=0;exitX=0.5;exitY=1;exitDx=0;exitDy=0;endArrow=ERoneToMany;endFill=0;" parent="1" source="7BsHOhPz-HNR1gg9W9UU-14" target="7BsHOhPz-HNR1gg9W9UU-31" edge="1">
          <mxGeometry relative="1" as="geometry" />
        </mxCell>
        <mxCell id="7BsHOhPz-HNR1gg9W9UU-14" value="tb_valoracion_productos" style="rounded=0;whiteSpace=wrap;html=1;" parent="1" vertex="1">
          <mxGeometry x="58" y="878" width="130" height="62" as="geometry" />
        </mxCell>
        <mxCell id="7BsHOhPz-HNR1gg9W9UU-32" value="" style="edgeStyle=orthogonalEdgeStyle;rounded=0;orthogonalLoop=1;jettySize=auto;html=1;exitX=0;exitY=0.5;exitDx=0;exitDy=0;" parent="1" source="7BsHOhPz-HNR1gg9W9UU-15" target="7BsHOhPz-HNR1gg9W9UU-14" edge="1">
          <mxGeometry relative="1" as="geometry" />
        </mxCell>
        <mxCell id="7BsHOhPz-HNR1gg9W9UU-15" value="id_vp" style="ellipse;whiteSpace=wrap;html=1;fontStyle=4" parent="1" vertex="1">
          <mxGeometry x="150" y="770" width="120" height="80" as="geometry" />
        </mxCell>
        <mxCell id="7BsHOhPz-HNR1gg9W9UU-16" value="id_cliente" style="ellipse;whiteSpace=wrap;html=1;" parent="1" vertex="1">
          <mxGeometry x="-30" y="770" width="120" height="80" as="geometry" />
        </mxCell>
        <mxCell id="7BsHOhPz-HNR1gg9W9UU-30" style="edgeStyle=orthogonalEdgeStyle;rounded=0;orthogonalLoop=1;jettySize=auto;html=1;entryX=0.5;entryY=0;entryDx=0;entryDy=0;exitX=0.5;exitY=1;exitDx=0;exitDy=0;" parent="1" source="7BsHOhPz-HNR1gg9W9UU-29" target="7BsHOhPz-HNR1gg9W9UU-14" edge="1">
          <mxGeometry relative="1" as="geometry" />
        </mxCell>
        <mxCell id="7BsHOhPz-HNR1gg9W9UU-29" value="id_valoracion" style="ellipse;whiteSpace=wrap;html=1;fontStyle=0" parent="1" vertex="1">
          <mxGeometry x="63" y="660" width="120" height="80" as="geometry" />
        </mxCell>
        <mxCell id="NpXi_9fuNtGS7JvnG2wx-32" style="edgeStyle=orthogonalEdgeStyle;rounded=0;orthogonalLoop=1;jettySize=auto;html=1;entryX=0;entryY=0.25;entryDx=0;entryDy=0;endArrow=ERoneToMany;endFill=0;" edge="1" parent="1" source="7BsHOhPz-HNR1gg9W9UU-31" target="xa4s_tNgX6mTq1DxwBig-86">
          <mxGeometry relative="1" as="geometry" />
        </mxCell>
        <mxCell id="7BsHOhPz-HNR1gg9W9UU-31" value="tienen" style="rhombus;whiteSpace=wrap;html=1;" parent="1" vertex="1">
          <mxGeometry x="200" y="1030" width="80" height="80" as="geometry" />
        </mxCell>
        <mxCell id="7BsHOhPz-HNR1gg9W9UU-36" style="edgeStyle=orthogonalEdgeStyle;rounded=0;orthogonalLoop=1;jettySize=auto;html=1;entryX=1;entryY=0.5;entryDx=0;entryDy=0;endArrow=ERoneToMany;endFill=0;" parent="1" source="7BsHOhPz-HNR1gg9W9UU-35" target="xa4s_tNgX6mTq1DxwBig-58" edge="1">
          <mxGeometry relative="1" as="geometry" />
        </mxCell>
        <mxCell id="7BsHOhPz-HNR1gg9W9UU-37" style="edgeStyle=orthogonalEdgeStyle;rounded=0;orthogonalLoop=1;jettySize=auto;html=1;entryX=0;entryY=0.5;entryDx=0;entryDy=0;endArrow=ERoneToMany;endFill=0;" parent="1" source="7BsHOhPz-HNR1gg9W9UU-35" target="7BsHOhPz-HNR1gg9W9UU-14" edge="1">
          <mxGeometry relative="1" as="geometry" />
        </mxCell>
        <mxCell id="7BsHOhPz-HNR1gg9W9UU-35" value="tienen" style="rhombus;whiteSpace=wrap;html=1;" parent="1" vertex="1">
          <mxGeometry x="-120" y="850" width="80" height="80" as="geometry" />
        </mxCell>
        <mxCell id="7BsHOhPz-HNR1gg9W9UU-44" style="edgeStyle=orthogonalEdgeStyle;rounded=0;orthogonalLoop=1;jettySize=auto;html=1;entryX=0;entryY=0.5;entryDx=0;entryDy=0;endArrow=ERoneToMany;endFill=0;" parent="1" source="7BsHOhPz-HNR1gg9W9UU-43" target="xa4s_tNgX6mTq1DxwBig-33" edge="1">
          <mxGeometry relative="1" as="geometry">
            <Array as="points">
              <mxPoint x="-270" y="1950" />
            </Array>
          </mxGeometry>
        </mxCell>
        <mxCell id="7BsHOhPz-HNR1gg9W9UU-45" style="edgeStyle=orthogonalEdgeStyle;rounded=0;orthogonalLoop=1;jettySize=auto;html=1;exitX=0.5;exitY=0;exitDx=0;exitDy=0;entryX=0;entryY=1;entryDx=0;entryDy=0;endArrow=ERoneToMany;endFill=0;" parent="1" source="7BsHOhPz-HNR1gg9W9UU-43" target="xa4s_tNgX6mTq1DxwBig-65" edge="1">
          <mxGeometry relative="1" as="geometry">
            <Array as="points">
              <mxPoint x="-270" y="1229" />
            </Array>
            <mxPoint x="-100" y="1200" as="targetPoint" />
          </mxGeometry>
        </mxCell>
        <mxCell id="7BsHOhPz-HNR1gg9W9UU-43" value="Contienen" style="rhombus;whiteSpace=wrap;html=1;" parent="1" vertex="1">
          <mxGeometry x="-310" y="1470" width="80" height="80" as="geometry" />
        </mxCell>
        <mxCell id="rhck_SnzIpGOyOcg27Mm-7" style="edgeStyle=orthogonalEdgeStyle;rounded=0;orthogonalLoop=1;jettySize=auto;html=1;entryX=1;entryY=0.5;entryDx=0;entryDy=0;endArrow=ERoneToMany;endFill=0;" parent="1" source="rhck_SnzIpGOyOcg27Mm-6" target="1BwzcU19pFz0WHQVYYsO-45" edge="1">
          <mxGeometry relative="1" as="geometry" />
        </mxCell>
        <mxCell id="rhck_SnzIpGOyOcg27Mm-8" style="edgeStyle=orthogonalEdgeStyle;rounded=0;orthogonalLoop=1;jettySize=auto;html=1;entryX=0;entryY=0.25;entryDx=0;entryDy=0;endArrow=ERoneToMany;endFill=0;" parent="1" source="rhck_SnzIpGOyOcg27Mm-6" target="xa4s_tNgX6mTq1DxwBig-65" edge="1">
          <mxGeometry relative="1" as="geometry" />
        </mxCell>
        <mxCell id="rhck_SnzIpGOyOcg27Mm-6" value="Tiene" style="rhombus;whiteSpace=wrap;html=1;" parent="1" vertex="1">
          <mxGeometry x="-290" y="1107" width="80" height="80" as="geometry" />
        </mxCell>
        <mxCell id="rhck_SnzIpGOyOcg27Mm-18" style="edgeStyle=orthogonalEdgeStyle;rounded=0;orthogonalLoop=1;jettySize=auto;html=1;entryX=0;entryY=0.75;entryDx=0;entryDy=0;endArrow=ERoneToMany;endFill=0;" parent="1" source="rhck_SnzIpGOyOcg27Mm-17" target="xa4s_tNgX6mTq1DxwBig-65" edge="1">
          <mxGeometry relative="1" as="geometry">
            <Array as="points">
              <mxPoint x="-300" y="1440" />
              <mxPoint x="-300" y="1214" />
            </Array>
          </mxGeometry>
        </mxCell>
        <mxCell id="rhck_SnzIpGOyOcg27Mm-19" style="edgeStyle=orthogonalEdgeStyle;rounded=0;orthogonalLoop=1;jettySize=auto;html=1;entryX=0.5;entryY=0;entryDx=0;entryDy=0;endArrow=ERoneToMany;endFill=0;" parent="1" source="rhck_SnzIpGOyOcg27Mm-17" target="xa4s_tNgX6mTq1DxwBig-38" edge="1">
          <mxGeometry relative="1" as="geometry" />
        </mxCell>
        <mxCell id="rhck_SnzIpGOyOcg27Mm-17" value="Tienen" style="rhombus;whiteSpace=wrap;html=1;" parent="1" vertex="1">
          <mxGeometry x="-460" y="1420" width="80" height="80" as="geometry" />
        </mxCell>
        <mxCell id="rhck_SnzIpGOyOcg27Mm-23" style="edgeStyle=orthogonalEdgeStyle;rounded=0;orthogonalLoop=1;jettySize=auto;html=1;" parent="1" source="rhck_SnzIpGOyOcg27Mm-22" target="1BwzcU19pFz0WHQVYYsO-33" edge="1">
          <mxGeometry relative="1" as="geometry" />
        </mxCell>
        <mxCell id="rhck_SnzIpGOyOcg27Mm-24" style="edgeStyle=orthogonalEdgeStyle;rounded=0;orthogonalLoop=1;jettySize=auto;html=1;entryX=0;entryY=0.5;entryDx=0;entryDy=0;" parent="1" source="rhck_SnzIpGOyOcg27Mm-22" target="xa4s_tNgX6mTq1DxwBig-38" edge="1">
          <mxGeometry relative="1" as="geometry" />
        </mxCell>
        <mxCell id="rhck_SnzIpGOyOcg27Mm-22" value="Tienen" style="rhombus;whiteSpace=wrap;html=1;" parent="1" vertex="1">
          <mxGeometry x="-790" y="1500" width="80" height="80" as="geometry" />
        </mxCell>
        <mxCell id="NpXi_9fuNtGS7JvnG2wx-2" value="1" style="text;html=1;align=center;verticalAlign=middle;resizable=0;points=[];autosize=1;strokeColor=none;fillColor=none;" vertex="1" parent="1">
          <mxGeometry x="-457" y="1149" width="30" height="30" as="geometry" />
        </mxCell>
        <mxCell id="NpXi_9fuNtGS7JvnG2wx-3" value="N" style="text;html=1;align=center;verticalAlign=middle;resizable=0;points=[];autosize=1;strokeColor=none;fillColor=none;" vertex="1" parent="1">
          <mxGeometry x="-457" y="1118" width="30" height="30" as="geometry" />
        </mxCell>
        <mxCell id="NpXi_9fuNtGS7JvnG2wx-4" value="N" style="text;html=1;align=center;verticalAlign=middle;resizable=0;points=[];autosize=1;strokeColor=none;fillColor=none;" vertex="1" parent="1">
          <mxGeometry x="20" y="1189" width="30" height="30" as="geometry" />
        </mxCell>
        <mxCell id="NpXi_9fuNtGS7JvnG2wx-7" value="N" style="text;html=1;align=center;verticalAlign=middle;resizable=0;points=[];autosize=1;strokeColor=none;fillColor=none;" vertex="1" parent="1">
          <mxGeometry x="-260" y="1920" width="30" height="30" as="geometry" />
        </mxCell>
        <mxCell id="NpXi_9fuNtGS7JvnG2wx-10" value="1" style="text;html=1;align=center;verticalAlign=middle;resizable=0;points=[];autosize=1;strokeColor=none;fillColor=none;" vertex="1" parent="1">
          <mxGeometry x="-260" y="1950" width="30" height="30" as="geometry" />
        </mxCell>
        <mxCell id="NpXi_9fuNtGS7JvnG2wx-11" value="N" style="text;html=1;align=center;verticalAlign=middle;resizable=0;points=[];autosize=1;strokeColor=none;fillColor=none;" vertex="1" parent="1">
          <mxGeometry x="-560" y="1501.5" width="30" height="30" as="geometry" />
        </mxCell>
        <mxCell id="NpXi_9fuNtGS7JvnG2wx-13" value="1" style="text;html=1;align=center;verticalAlign=middle;resizable=0;points=[];autosize=1;strokeColor=none;fillColor=none;" vertex="1" parent="1">
          <mxGeometry x="-590" y="1500" width="30" height="30" as="geometry" />
        </mxCell>
        <mxCell id="NpXi_9fuNtGS7JvnG2wx-14" value="1" style="text;html=1;align=center;verticalAlign=middle;resizable=0;points=[];autosize=1;strokeColor=none;fillColor=none;" vertex="1" parent="1">
          <mxGeometry x="-900" y="1550" width="30" height="30" as="geometry" />
        </mxCell>
        <mxCell id="NpXi_9fuNtGS7JvnG2wx-15" value="N" style="text;html=1;align=center;verticalAlign=middle;resizable=0;points=[];autosize=1;strokeColor=none;fillColor=none;" vertex="1" parent="1">
          <mxGeometry x="-900" y="1520" width="30" height="30" as="geometry" />
        </mxCell>
        <mxCell id="NpXi_9fuNtGS7JvnG2wx-19" value="N" style="text;html=1;align=center;verticalAlign=middle;resizable=0;points=[];autosize=1;strokeColor=none;fillColor=none;" vertex="1" parent="1">
          <mxGeometry x="-130" y="1150" width="30" height="30" as="geometry" />
        </mxCell>
        <mxCell id="NpXi_9fuNtGS7JvnG2wx-21" value="1" style="text;html=1;align=center;verticalAlign=middle;resizable=0;points=[];autosize=1;strokeColor=none;fillColor=none;" vertex="1" parent="1">
          <mxGeometry x="20" y="1150" width="30" height="30" as="geometry" />
        </mxCell>
        <mxCell id="NpXi_9fuNtGS7JvnG2wx-22" value="N" style="text;html=1;align=center;verticalAlign=middle;resizable=0;points=[];autosize=1;strokeColor=none;fillColor=none;" vertex="1" parent="1">
          <mxGeometry x="-190" y="840" width="30" height="30" as="geometry" />
        </mxCell>
        <mxCell id="NpXi_9fuNtGS7JvnG2wx-23" value="1" style="text;html=1;align=center;verticalAlign=middle;resizable=0;points=[];autosize=1;strokeColor=none;fillColor=none;" vertex="1" parent="1">
          <mxGeometry x="28" y="910" width="30" height="30" as="geometry" />
        </mxCell>
        <mxCell id="NpXi_9fuNtGS7JvnG2wx-25" value="id_cargo" style="ellipse;whiteSpace=wrap;html=1;fontStyle=0" vertex="1" parent="1">
          <mxGeometry x="-620" y="1910" width="120" height="80" as="geometry" />
        </mxCell>
        <mxCell id="NpXi_9fuNtGS7JvnG2wx-28" value="imagen_producto" style="ellipse;whiteSpace=wrap;html=1;" vertex="1" parent="1">
          <mxGeometry x="10" y="1674" width="120" height="80" as="geometry" />
        </mxCell>
        <mxCell id="NpXi_9fuNtGS7JvnG2wx-33" value="imagen_marca" style="ellipse;whiteSpace=wrap;html=1;fontStyle=0" vertex="1" parent="1">
          <mxGeometry x="-727" y="1109" width="120" height="80" as="geometry" />
        </mxCell>
        <mxCell id="NpXi_9fuNtGS7JvnG2wx-35" value="existencia" style="ellipse;whiteSpace=wrap;html=1;" vertex="1" parent="1">
          <mxGeometry x="-100" y="1760" width="120" height="80" as="geometry" />
        </mxCell>
        <mxCell id="NpXi_9fuNtGS7JvnG2wx-37" value="1" style="text;html=1;align=center;verticalAlign=middle;resizable=0;points=[];autosize=1;strokeColor=none;fillColor=none;" vertex="1" parent="1">
          <mxGeometry x="390" y="1294" width="30" height="30" as="geometry" />
        </mxCell>
        <mxCell id="NpXi_9fuNtGS7JvnG2wx-38" value="N" style="text;html=1;align=center;verticalAlign=middle;resizable=0;points=[];autosize=1;strokeColor=none;fillColor=none;" vertex="1" parent="1">
          <mxGeometry x="120" y="940" width="30" height="30" as="geometry" />
        </mxCell>
        <mxCell id="NpXi_9fuNtGS7JvnG2wx-40" value="1" style="text;html=1;align=center;verticalAlign=middle;resizable=0;points=[];autosize=1;strokeColor=none;fillColor=none;" vertex="1" parent="1">
          <mxGeometry x="95" y="939" width="30" height="30" as="geometry" />
        </mxCell>
      </root>
    </mxGraphModel>
  </diagram>
</mxfile>
